<svg width="230" height="49" viewBox="0 0 230 49" xmlns="http://www.w3.org/2000/svg"><title>LOGO-GROUP</title><g fill="none" fill-rule="evenodd"><path d="M76.947 1.085c.3 0 1.634.137 2.027.61.405.427.428 2.16.474 2.15.046-.01.127 0 .173.088.047.088.013 1.02.013 1.11 0 .086-.208.064-.208.196 0 .13-.26.662-.26.662 0 .15.08.54.43 1.077 1.212 1.112 2.364 1.15 2.364 1.15 1.152.166 1.68.537 2.343 1.743.664 1.207 1.172 5.196 1.172 5.196.664 1.465.507 2.467.507 3.153 0 .687-.8 1.837-1.386 3.507-.586 1.67-1.29 2.32-1.64 2.858-.352.537-.352 1.057-.352 1.057l-.235 10.39s-.215 3.675-.196 3.767c.02.094-.313 5.53-.313 5.53.002 0 0 .08.137.284.136.204-.096.68-.096.68s-1.625 1.03-2.142 1.183c-.996.293-1.79.052-1.947.052-.155 0-.735-.33-.266-.878.79-.737.978-.876.978-.876s-2.344.036-2.97.018c-.623-.018-.604-.334-.624-.52-.02-.185.273-.37.273-.37s1.838-.39 2.6-1.3c.546-.464.312-1.317.312-1.874 0-.556-3.027-14.25-3.027-14.25s0-.093-.41-.204c-.293-1.28-.232-4.166-.372-4.453-.14-.287-1.775-1.78-1.167-4.598.092-1.108.368-7.405.368-7.405.12-.378 2.784-2.542 2.784-2.542a.51.51 0 0 1 .11-.48c.175-.206-.023-.54-.4-.883-.32-.293-.89-2.05-.976-2.235-.084-.183-.205-.79-.17-2.12.255-1.34 1.985-1.47 1.985-1.47l.11-.007zM91.573 24.11s-.03.85.168 1.014c.2.166.34.94.34 1.327 0 .388.565 6.99.565 8.4 1.045.358 1.47.193 1.553.58.085.386 1.44 4.944 1.78 5.91.34.968.932 1.935.82 2.515-.114.58-.68 1.022-.99 1.188-.31.166-.62.967-1.045 1.3-.423.33-.79.385-.79.606 0 .22.197.497.96.414.762-.083 1.525-.36 1.525-.36s-.282.58-.056.636c.226.055.848.304 1.412.083.565-.22.82-.525 1.158-.884.34-.36.7-.65.7-.65s.33-.47.007-1.037c-.05-.086-.538-.47-.792-1.022-.254-.55-.48-1.13-.368-1.74.114-.607.622-3.038.65-3.645.03-.608.113-3.482.113-3.62 0-.138 1.3-.414 1.497-.718.198-.304-.056-3.73-.084-4.724-.028-.995.084-2.79.254-2.873.17-.083.395-.304.62-.138.227.166 1.47.22 1.64.11.17-.11.508-.608.508-.608s1.667-.11 1.695-.36c.028-.247-.82-2.568-.96-3.563-.142-.993 0-2.18-.085-2.457-.085-.277-.932-3.37-1.045-4.56-.113-1.187-.597-4.716-.673-5.012-.08-.308-.208-.842-.937-1.12-1.408-.533-1.64-.496-1.64-.662 0 0-.02-.23.15-.287.17-.054.326-.03.43.097.106.126.22.182.22.015 0-.166-.17-.54-.195-.714-.024-.174.057-.07.162-.333.106-.262-.056-.38 0-.65.057-.27-.162-2.864-.835-3.6-.674-.74-1.64-1.588-2.547-1.667-.91-.08-2.587.675-3.082 2.023 0 0-.316.58-.527.755-.212.174-.017 1.467-.025 1.522-.01.056.175.79.183.95.008.158-.315 1.03-.59 1.065-.2.025-.074.12.088.19.163.072-.03.137.043.208.072.07.105.316.323.26.22-.055.228-.095.357-.07.13.023.123.383.123.383s-.433-.018-.63.16c-.2.175-.56.722-1.1.863-.542.14-1.57.67-1.588 1.235 0 0-.27 3.07-.38 3.74-.107.67-1.028 6.267-.74 7.078 0 0 .215.31.31.372s.27.737.468.93c.198.195.07 1 .34 1.095.27.093.413.085.477.07M114.236 6.112s-.368.285-.457.505c-.09.22-1.284 1.155-2.578 1.505 0 0-1.548.83-1.777 1.75-.228.92-.89 5.485-.89 7.158s.065 2.45.065 2.528c0 .078.318.506.546.687-.063.87-.09 2.373.025 2.672.116.298 1.625 1.413 1.93 1.426 0 .817.115 6.38.153 6.678.038.298.435 6.54.46 6.904.06.87.985 5.71.936 5.57-.128-.363.736 2.736.774 2.93.038.195.128 1.388.306 1.687.228.273 1.117.415 1.637.415s1.536-.246 1.536-.246.457-.403-.013-.948c-.47-.544-.774-.868-.94-1.063-.165-.196-.354-2.05-.393-2.425-.038-.377-.24-1.142-.42-2.127-.177-.985.05-4.323.138-4.79.09-.466.51-5.013.676-5.298.166-.285.33.986.496 2.035.115.714 1.047 3.1 1.008 6.148 0 0 .382 1.97.67 2.774-.077.428-.077 2.32-.204 2.8s-.246 1.475.008 1.527c.098.02.504-.003 1.04.023.34.015.36-.04.346-.188.46.117 1.112.178 1.966.188.653.008 1.935.057 2.19-.04.178-.068.094-.434-.21-.6-.353-.195-.694-.21-1.024-.34-.33-.13-1.168-.752-1.257-1.063-.09-.31-.54-4.832-.465-5.714 0 0 .167-1.293.155-1.806-.025-1.18-.023-2.318.066-2.472.318.057.276.057 1.576.333 0 0 1.98.3 2.424-.376.444-.676.66-2.75.71-3.982.05-1.232.09-1.478.09-1.478s-.585-.96-1.955-1.57c-1.37-.608-1.76-.498-2.066-.615-.305-.117-.327-.32-.187-.497.17-.217.388-.157.603-.145.216.014.42-.88.356-1.737-.064-.856.28-.868.292-.947.013-.078-.204-3.54-.445-4.474-.24-.934-1.32-9.713-1.32-9.713s-.228-1.115-1.37-1.57c-1.143-.452-1.968-.854-2.095-.945-.127-.09-.368-.376-.368-.57 0-.195.007-.475.134-.553.127-.078.5-1.224.5-1.224s.166-.258.166-.323.076-1.22.076-1.35c0-.128.165-.79.165-.984 0-.194-.24-1.478-1.93-1.75-.637-.103-1.315-.056-1.414.223-.057.158-.237.174-.33.237-.388.26-.533.64-.54.706-.012.13-.24.998-.038 1.296.14.44.076.363.076.363s-.152.103-.152.194c0 .09-.038.87-.038.87s.202.323.267.27c.065-.05.14.377.178.428.038.053.216.792.152 1.05" fill="#595A59"/><path d="M9.718 16.532l-2.646.63v22.596c0 1.79-.193 3.048-.626 3.968-.673 1.5-2.453 2.516-4.33 2.516-.528 0-.817 0-2.116-.145l.914 2.855c.48.048.866.048 1.058.048 2.406 0 4.234-.726 5.677-2.177 1.538-1.55 2.068-3.34 2.068-7.065V16.532zm.53-7.113L8.225 7 6.11 9.42l2.116 2.612 2.02-2.613zm15.485 6.774c-6.495 0-11.834 5.467-11.834 12.096 0 6.726 5.435 12.436 11.833 12.436 6.64 0 11.882-5.516 11.882-12.532 0-6.775-5.147-12-11.882-12zm.048 2.758c5.004 0 8.95 4.16 8.95 9.435 0 5.178-4.042 9.58-8.805 9.58-5.003 0-9.14-4.354-9.14-9.58 0-5.274 3.945-9.435 8.996-9.435zM44.91 7.194l-2.647.63v17.95c0 1.55 0 2.71.048 3.29.05 2.033.674 4.307 1.636 6 1.973 3.484 5.82 5.662 10.055 5.662 6.64 0 12.028-5.565 12.028-12.387 0-6.68-5.292-12.146-11.787-12.146-3.703 0-6.493 1.5-9.33 4.983V7.194zm9.283 11.758c4.86 0 8.948 4.306 8.948 9.338 0 5.275-4.136 9.678-9.09 9.678-5.1 0-9.238-4.258-9.238-9.533 0-5.274 4.186-9.483 9.38-9.483zm81.76-11.758l-2.645.63v32.61l2.646-.676V7.194zM161.56 21.71c-2.02-3.63-5.292-5.516-9.525-5.516-6.687 0-11.786 5.322-11.786 12.338 0 6.58 5.386 12.194 11.688 12.194 3.224 0 6.014-1.016 8.996-3.242v-3.532c-3.415 2.903-5.82 4.016-8.85 4.016-3.513 0-6.784-2.13-8.083-5.323l17.56-10.935zm-18.377 8.322c-.096-.822-.192-1.5-.192-1.838 0-5.08 4.138-9.242 9.093-9.242 2.31 0 4.137.677 5.58 2.08l-14.48 9zm36.856 10.355l2.645-.58V25.434c0-2.274-.048-3.24-.145-3.87-.24-1.307-.77-2.37-1.683-3.242-1.347-1.258-3.464-1.984-6.014-1.984-2.26 0-4.04.337-6.398 1.257l-1.106 3.145c.383-.145.624-.242.768-.242 2.742-1.065 1.973-.774 2.406-.92 1.443-.386 3.08-.628 4.137-.628 1.877 0 3.513.58 4.33 1.548.77.823 1.01 1.694 1.01 3.532 0 .05 0 .484-.047.92v1.887c-1.444-1.888-3.656-2.905-6.35-2.905-4.763 0-8.42 3.678-8.42 8.468s3.56 8.37 8.323 8.37c2.84 0 4.763-.967 6.543-3.29v2.904zm-6.11-13.935c3.51 0 6.205 2.564 6.205 5.903 0 3.34-2.694 5.806-6.302 5.806-3.464 0-5.917-2.418-5.917-5.805 0-3.436 2.55-5.903 6.013-5.903zm35.128-19.258l-2.646.387v13.355c-2.646-3.387-5.244-4.74-8.852-4.74-6.64 0-11.834 5.466-11.834 12.482 0 6.533 5.243 12.05 11.497 12.05 2.165 0 4.522-.727 6.254-1.937.962-.677 1.636-1.355 2.935-3v4.645l2.646-.677V7.194zm-11.354 11.758c5.148 0 8.948 3.967 8.948 9.387 0 5.515-3.848 9.676-8.948 9.676-5.147 0-9.092-4.113-9.092-9.435 0-5.467 3.945-9.628 9.092-9.628zm31.96-.194C227.497 16.87 225.236 16 222.35 16c-4.425 0-7.89 2.952-7.89 6.823 0 3.193 2.166 5.467 5.967 6.29l2.357.532c1.587.34 2.55.774 3.08 1.258a4.12 4.12 0 0 1 1.25 2.903c0 2.42-2.165 4.162-5.148 4.162-2.55 0-4.474-.92-6.06-2.903l-2.07 1.983c1.876 2.37 4.666 3.678 7.938 3.678 4.762 0 8.226-3 8.226-7.113 0-3.436-2.453-5.952-6.59-6.823l-1.877-.338c-2.934-.63-4.185-1.742-4.185-3.823 0-2.227 2.068-3.872 4.86-3.872 2.163 0 3.56.484 5.82 2.08l1.635-2.08z" fill="#7A9943"/></g></svg>